<?xml version="1.0" encoding="UTF-8"?>
<svg viewBox="0 0 42 42" xmlns="http://www.w3.org/2000/svg">
<g transform="translate(1 1)" fill-rule="evenodd" stroke="#18191A" stroke-width="1.5">
<circle cx="20" cy="20" r="20" fill="#FFC70A"/>
<path d="M31.1 36.46a18.9 18.9 0 0 1-.788.534 18.645 18.645 0 0 1-1.434.837c-.08.042-.161.081-.242.122-.831.42-1.692.78-2.576 1.073l-.094.031c-.463.152-.932.286-1.406.402h-.004a19.16 19.16 0 0 1-1.451.293l-.04.007c-.459.074-.921.127-1.385.167-.082.007-.164.012-.247.018-.458.034-.92.056-1.382.056-.469 0-.935-.023-1.4-.057-.08-.006-.161-.01-.24-.018a19.387 19.387 0 0 1-1.459-.18 19.005 19.005 0 0 1-2.873-.706l-.087-.03a19.285 19.285 0 0 1-1.375-.518l-.01-.004a19.408 19.408 0 0 1-1.26-.594l-.161-.082a19.055 19.055 0 0 1-1.432-.84c-.336-.216-.667-.44-.989-.679-.033-.024-.05-.101-.027-.115l5.84-3.136a3.069 3.069 0 0 0 1.629-2.701v-1.893l-.17-.202c-.017-.018-1.614-1.93-2.217-4.52l-.067-.289-.252-.16a1.201 1.201 0 0 1-.568-1.013v-2.578c0-.338.145-.653.411-.89l.244-.216v-4.051l-.007-.095c-.002-.018-.22-1.767 1.031-3.171 1.068-1.199 2.899-1.807 5.439-1.807 2.53 0 4.355.603 5.426 1.793 1.25 1.39 1.045 3.172 1.043 3.186l-.006 4.146.243.217c.266.236.412.551.412.89v2.578c0 .518-.358.989-.873 1.145l-.367.111-.118.36a13.373 13.373 0 0 1-1.843 3.66c-.194.27-.382.508-.544.69l-.183.206V30.4c0 1.172.662 2.227 1.727 2.75l6.254 3.08c.04.019.136.045-.122.23z" fill="#FFF"/>
</g>
</svg>
